<?xml version="1.0" encoding="UTF-8" standalone="no"?>
<!-- Created with Inkscape (http://www.inkscape.org/) -->

<svg
   xmlns:dc="http://purl.org/dc/elements/1.1/"
   xmlns:cc="http://creativecommons.org/ns#"
   xmlns:rdf="http://www.w3.org/1999/02/22-rdf-syntax-ns#"
   xmlns:svg="http://www.w3.org/2000/svg"
   xmlns="http://www.w3.org/2000/svg"
   xmlns:xlink="http://www.w3.org/1999/xlink"
   xmlns:sodipodi="http://sodipodi.sourceforge.net/DTD/sodipodi-0.dtd"
   xmlns:inkscape="http://www.inkscape.org/namespaces/inkscape"
   width="210mm"
   height="297mm"
   viewBox="0 0 744.09448819 1052.3622047"
   id="svg2"
   version="1.1"
   inkscape:version="0.91 r13725"
   sodipodi:docname="player_prototype.svg"
   inkscape:export-filename="/home/juanfgs/src/ruby/gametest/assets/images/player.png"
   inkscape:export-xdpi="34.117725"
   inkscape:export-ydpi="34.117725">
  <defs
     id="defs4">
    <linearGradient
       inkscape:collect="always"
       id="linearGradient4445">
      <stop
         style="stop-color:#ffffff;stop-opacity:1;"
         offset="0"
         id="stop4447" />
      <stop
         style="stop-color:#ffffff;stop-opacity:0;"
         offset="1"
         id="stop4449" />
    </linearGradient>
    <linearGradient
       inkscape:collect="always"
       id="linearGradient4435">
      <stop
         style="stop-color:#ffffff;stop-opacity:1;"
         offset="0"
         id="stop4437" />
      <stop
         style="stop-color:#ffffff;stop-opacity:0;"
         offset="1"
         id="stop4439" />
    </linearGradient>
    <inkscape:perspective
       sodipodi:type="inkscape:persp3d"
       inkscape:vp_x="0 : 526.1811 : 1"
       inkscape:vp_y="0 : 1000 : 0"
       inkscape:vp_z="744.09449 : 526.1811 : 1"
       inkscape:persp3d-origin="372.04724 : 350.7874 : 1"
       id="perspective4378" />
    <radialGradient
       inkscape:collect="always"
       r="86.398"
       gradientTransform="matrix(1.2543,0.80966,-0.83217,1.2892,239.39,-365.73)"
       cx="314.62"
       cy="383.81"
       gradientUnits="userSpaceOnUse"
       id="radialGradient3814">
      <stop
         offset="0"
         style="stop-color:#181818"
         id="stop3808" />
      <stop
         offset="1"
         style="stop-color:#7b4a4a;stop-opacity:0"
         id="stop3810" />
    </radialGradient>
    <radialGradient
       inkscape:collect="always"
       xlink:href="#radialGradient3814"
       id="radialGradient4232"
       gradientUnits="userSpaceOnUse"
       gradientTransform="matrix(1.2543,0.80966,-0.83217,1.2892,239.39,-365.73)"
       cx="314.62"
       cy="383.81"
       r="86.398" />
    <radialGradient
       inkscape:collect="always"
       xlink:href="#radialGradient3814"
       id="radialGradient4240"
       gradientUnits="userSpaceOnUse"
       gradientTransform="matrix(1.2543,0.80966,-0.83217,1.2892,239.39,-365.73)"
       cx="314.62"
       cy="383.81"
       r="86.398" />
    <radialGradient
       inkscape:collect="always"
       xlink:href="#radialGradient3814"
       id="radialGradient4248"
       gradientUnits="userSpaceOnUse"
       gradientTransform="matrix(1.2543,0.80966,-0.83217,1.2892,239.39,-365.73)"
       cx="314.62"
       cy="383.81"
       r="86.398" />
    <radialGradient
       inkscape:collect="always"
       xlink:href="#radialGradient3814"
       id="radialGradient4268"
       gradientUnits="userSpaceOnUse"
       gradientTransform="matrix(1.2543,0.80966,-0.83217,1.2892,239.39,-365.73)"
       cx="314.62"
       cy="383.81"
       r="86.398" />
    <linearGradient
       inkscape:collect="always"
       xlink:href="#linearGradient4435"
       id="linearGradient4441"
       x1="107.40466"
       y1="79.039642"
       x2="127.44668"
       y2="99.081657"
       gradientUnits="userSpaceOnUse"
       gradientTransform="matrix(0.8235294,0,0,1,22.85334,0)" />
    <linearGradient
       inkscape:collect="always"
       xlink:href="#linearGradient4445"
       id="linearGradient4451"
       x1="52.417583"
       y1="58.48373"
       x2="83.832878"
       y2="112.89661"
       gradientUnits="userSpaceOnUse" />
  </defs>
  <sodipodi:namedview
     id="base"
     pagecolor="#ffffff"
     bordercolor="#666666"
     borderopacity="1.0"
     inkscape:pageopacity="0.0"
     inkscape:pageshadow="2"
     inkscape:zoom="1.9459119"
     inkscape:cx="152.85714"
     inkscape:cy="944.28571"
     inkscape:document-units="px"
     inkscape:current-layer="layer1"
     showgrid="false"
     showguides="true"
     inkscape:guide-bbox="true"
     inkscape:window-width="1918"
     inkscape:window-height="1054"
     inkscape:window-x="0"
     inkscape:window-y="24"
     inkscape:window-maximized="0">
    <sodipodi:guide
       position="-20.555915,818.12542"
       orientation="0,1"
       id="guide4152" />
  </sodipodi:namedview>
  <metadata
     id="metadata7">
    <rdf:RDF>
      <cc:Work
         rdf:about="">
        <dc:format>image/svg+xml</dc:format>
        <dc:type
           rdf:resource="http://purl.org/dc/dcmitype/StillImage" />
        <dc:title></dc:title>
      </cc:Work>
    </rdf:RDF>
  </metadata>
  <g
     inkscape:label="Capa 1"
     inkscape:groupmode="layer"
     id="layer1">
    <path
       style="fill:#f7f0f0;fill-opacity:1;stroke:#000000;stroke-width:0.2;stroke-miterlimit:4;stroke-dasharray:none;stroke-opacity:1"
       d="m 40.626953,12.464844 c -5.031592,0 -9.082031,4.356678 -9.082031,9.767578 l 0,23.947266 c 0,0.283355 0.01729,0.560794 0.03906,0.83789 l -5.353063,4.111183 c -3.765564,2.891975 -7.02862,13.166809 -7.02862,18.669858 l 0,39.274011 c 0,5.50304 6.000824,13.53089 6.000824,13.53089 l 3.40625,0 0,36.85937 c 0,5.50306 3.822366,9.93359 8.570313,9.93359 l 63.601564,0 c 4.74794,0 8.57031,-4.43053 8.57031,-9.93359 l 0,-36.85937 11.83789,0 c 4.74795,0 8.57032,-4.43056 8.57032,-9.9336 l 0,-48.524178 c 0,-5.503049 -3.84215,-10.829981 -8.05642,-13.016981 l -7.9221,-4.111183 c 0.0218,-0.277096 0.0391,-0.554535 0.0391,-0.83789 l 0,-23.947266 c 0,-5.4109 -4.05239,-9.767578 -9.08398,-9.767578 z"
       id="rect4138"
       inkscape:connector-curvature="0"
       sodipodi:nodetypes="ssscsssccsssscsssscssss" />
    <g
       id="g4250"
       transform="translate(-8,-24)"
       style="stroke:none">
      <rect
         ry="10.136133"
         rx="10.136133"
         y="167.44939"
         x="14.922347"
         height="36.294563"
         width="137.1721"
         id="rect4154"
         style="fill:#333333;fill-opacity:1;stroke:none;stroke-width:1.03861809;stroke-opacity:1" />
      <rect
         style="fill:#666666;fill-opacity:1;stroke:none;stroke-width:0.99364531;stroke-opacity:1"
         id="rect4156"
         width="131.23247"
         height="34.722984"
         x="17.89217"
         y="168.23518"
         rx="9.6972322"
         ry="9.6972322" />
    </g>
    <g
       transform="matrix(0.19544736,0,0,0.19544736,-33.75458,85.8317)"
       inkscape:label="Layer 1"
       id="layer1-1">
      <path
         d="m 304.56,297.53 -5.625,13.938 c -5.238,1.1051 -10.236,2.7875 -15,4.9375 l -12.16,-8.41 -16.469,11.906 3.75,14.781 c -3.2172,3.6149 -6.0654,7.5547 -8.5312,11.75 l -14.406,-0.0312 -6.8125,19.156 11.5,10.062 c -0.29423,2.6773 -0.4375,5.3997 -0.4375,8.1562 0,3.3628 0.25264,6.6626 0.6875,9.9062 l -11.531,9.2812 6.7188,19.188 15.25,0.59375 c 2.684,4.3134 5.7936,8.3408 9.2812,12 l -3.9062,13.938 16.594,11.719 12.688,-8.2812 c 4.541,1.8699 9.3073,3.3114 14.25,4.25 l 5.1562,13.719 20.344,-0.4375 5.1562,-13.906 c 5.3293,-1.2376 10.432,-3.0226 15.25,-5.3438 l 11.906,7.9375 16.27,-12.24 -3.94,-14.46 c 3.6346,-4.2674 6.8076,-8.9465 9.4062,-13.969 l 14.188,-0.75 5.7812,-19.5 -11.875,-9.3125 c 0.0831,-1.4354 0.125,-2.8876 0.125,-4.3438 0,-3.7719 -0.26694,-7.4759 -0.8125,-11.094 l 11.156,-9.2812 -7,-19.062 -15,-0.375 c -2.5,-3.9 -5.36,-7.55 -8.53,-10.91 l 3.9688,-13.844 -16.531,-11.812 -12.625,8.1875 c -4.1917,-1.7549 -8.583,-3.1311 -13.125,-4.0938 l -4.8125,-13.844 -20.312,-0.125 z M 291,321.81 c 3.9143,0 7.0938,3.1795 7.0938,7.0938 0,3.9143 -3.1795,7.0625 -7.0938,7.0625 -3.9143,0 -7.0938,-3.1482 -7.0938,-7.0625 0,-3.9143 3.1795,-7.0938 7.0938,-7.0938 z M 360.97,339 c 3.9143,0 7.0938,3.1795 7.0938,7.0938 0,3.9143 -3.1795,7.0625 -7.0938,7.0625 -3.9143,0 -7.0625,-3.1482 -7.0625,-7.0625 0,-3.9143 3.1482,-7.0938 7.0625,-7.0938 z m -46.688,10.062 c 19.05,0 34.5,15.419 34.5,34.469 0,19.05 -15.45,34.5 -34.5,34.5 -19.05,0 -34.5,-15.45 -34.5,-34.5 0,-19.05 15.45,-34.469 34.5,-34.469 z m -58.906,36.875 c 3.9143,0 7.0938,3.1795 7.0938,7.0938 0,3.9143 -3.1795,7.0625 -7.0938,7.0625 -3.9143,0 -7.0938,-3.1482 -7.0938,-7.0625 0,-3.9143 3.1795,-7.0938 7.0938,-7.0938 z m 108.53,22.625 c 3.9143,0 7.0938,3.1795 7.0938,7.0938 0,3.9143 -3.1795,7.0938 -7.0938,7.0938 -3.9143,0 -7.0625,-3.1795 -7.0625,-7.0938 0,-3.9143 3.1482,-7.0938 7.0625,-7.0938 z m -62.02,25.16 c 3.9143,0 7.0938,3.1795 7.0938,7.0938 0,3.9143 -3.1795,7.0625 -7.0938,7.0625 -3.9143,0 -7.0625,-3.1482 -7.0625,-7.0625 0,-3.9143 3.1482,-7.0938 7.0625,-7.0938 z"
         inkscape:connector-curvature="0"
         style="fill:url(#radialGradient4268);fill-rule:evenodd;stroke:#000000"
         id="path3089" />
      <path
         d="m 314.29,339.26 c -24.493,0 -44.344,19.851 -44.344,44.344 0,24.493 19.851,44.344 44.344,44.344 24.493,0 44.344,-19.851 44.344,-44.344 0,-24.493 -19.851,-44.344 -44.344,-44.344 z m 0,10.031 c 19.06,0 34.5,15.44 34.5,34.5 0,19.06 -15.44,34.5 -34.5,34.5 -19.06,0 -34.5,-15.44 -34.5,-34.5 0,-19.06 15.44,-34.5 34.5,-34.5 z"
         inkscape:connector-curvature="0"
         style="fill:#959595;fill-rule:evenodd;stroke:#000000"
         id="path3087" />
    </g>
    <g
       id="g4226"
       inkscape:label="Layer 1"
       transform="matrix(0.18773495,-0.0543623,0.0543623,0.18773495,-20.192487,105.89455)">
      <path
         id="path4228"
         style="fill:url(#radialGradient4232);fill-rule:evenodd;stroke:#000000"
         inkscape:connector-curvature="0"
         d="m 304.56,297.53 -5.625,13.938 c -5.238,1.1051 -10.236,2.7875 -15,4.9375 l -12.16,-8.41 -16.469,11.906 3.75,14.781 c -3.2172,3.6149 -6.0654,7.5547 -8.5312,11.75 l -14.406,-0.0312 -6.8125,19.156 11.5,10.062 c -0.29423,2.6773 -0.4375,5.3997 -0.4375,8.1562 0,3.3628 0.25264,6.6626 0.6875,9.9062 l -11.531,9.2812 6.7188,19.188 15.25,0.59375 c 2.684,4.3134 5.7936,8.3408 9.2812,12 l -3.9062,13.938 16.594,11.719 12.688,-8.2812 c 4.541,1.8699 9.3073,3.3114 14.25,4.25 l 5.1562,13.719 20.344,-0.4375 5.1562,-13.906 c 5.3293,-1.2376 10.432,-3.0226 15.25,-5.3438 l 11.906,7.9375 16.27,-12.24 -3.94,-14.46 c 3.6346,-4.2674 6.8076,-8.9465 9.4062,-13.969 l 14.188,-0.75 5.7812,-19.5 -11.875,-9.3125 c 0.0831,-1.4354 0.125,-2.8876 0.125,-4.3438 0,-3.7719 -0.26694,-7.4759 -0.8125,-11.094 l 11.156,-9.2812 -7,-19.062 -15,-0.375 c -2.5,-3.9 -5.36,-7.55 -8.53,-10.91 l 3.9688,-13.844 -16.531,-11.812 -12.625,8.1875 c -4.1917,-1.7549 -8.583,-3.1311 -13.125,-4.0938 l -4.8125,-13.844 -20.312,-0.125 z M 291,321.81 c 3.9143,0 7.0938,3.1795 7.0938,7.0938 0,3.9143 -3.1795,7.0625 -7.0938,7.0625 -3.9143,0 -7.0938,-3.1482 -7.0938,-7.0625 0,-3.9143 3.1795,-7.0938 7.0938,-7.0938 z M 360.97,339 c 3.9143,0 7.0938,3.1795 7.0938,7.0938 0,3.9143 -3.1795,7.0625 -7.0938,7.0625 -3.9143,0 -7.0625,-3.1482 -7.0625,-7.0625 0,-3.9143 3.1482,-7.0938 7.0625,-7.0938 z m -46.688,10.062 c 19.05,0 34.5,15.419 34.5,34.469 0,19.05 -15.45,34.5 -34.5,34.5 -19.05,0 -34.5,-15.45 -34.5,-34.5 0,-19.05 15.45,-34.469 34.5,-34.469 z m -58.906,36.875 c 3.9143,0 7.0938,3.1795 7.0938,7.0938 0,3.9143 -3.1795,7.0625 -7.0938,7.0625 -3.9143,0 -7.0938,-3.1482 -7.0938,-7.0625 0,-3.9143 3.1795,-7.0938 7.0938,-7.0938 z m 108.53,22.625 c 3.9143,0 7.0938,3.1795 7.0938,7.0938 0,3.9143 -3.1795,7.0938 -7.0938,7.0938 -3.9143,0 -7.0625,-3.1795 -7.0625,-7.0938 0,-3.9143 3.1482,-7.0938 7.0625,-7.0938 z m -62.02,25.16 c 3.9143,0 7.0938,3.1795 7.0938,7.0938 0,3.9143 -3.1795,7.0625 -7.0938,7.0625 -3.9143,0 -7.0625,-3.1482 -7.0625,-7.0625 0,-3.9143 3.1482,-7.0938 7.0625,-7.0938 z" />
      <path
         id="path4230"
         style="fill:#959595;fill-rule:evenodd;stroke:#000000"
         inkscape:connector-curvature="0"
         d="m 314.29,339.26 c -24.493,0 -44.344,19.851 -44.344,44.344 0,24.493 19.851,44.344 44.344,44.344 24.493,0 44.344,-19.851 44.344,-44.344 0,-24.493 -19.851,-44.344 -44.344,-44.344 z m 0,10.031 c 19.06,0 34.5,15.44 34.5,34.5 0,19.06 -15.44,34.5 -34.5,34.5 -19.06,0 -34.5,-15.44 -34.5,-34.5 0,-19.06 15.44,-34.5 34.5,-34.5 z" />
    </g>
    <g
       transform="matrix(0.19535462,0.00602042,-0.00602042,0.19535462,32.572828,84.01115)"
       inkscape:label="Layer 1"
       id="g4234">
      <path
         d="m 304.56,297.53 -5.625,13.938 c -5.238,1.1051 -10.236,2.7875 -15,4.9375 l -12.16,-8.41 -16.469,11.906 3.75,14.781 c -3.2172,3.6149 -6.0654,7.5547 -8.5312,11.75 l -14.406,-0.0312 -6.8125,19.156 11.5,10.062 c -0.29423,2.6773 -0.4375,5.3997 -0.4375,8.1562 0,3.3628 0.25264,6.6626 0.6875,9.9062 l -11.531,9.2812 6.7188,19.188 15.25,0.59375 c 2.684,4.3134 5.7936,8.3408 9.2812,12 l -3.9062,13.938 16.594,11.719 12.688,-8.2812 c 4.541,1.8699 9.3073,3.3114 14.25,4.25 l 5.1562,13.719 20.344,-0.4375 5.1562,-13.906 c 5.3293,-1.2376 10.432,-3.0226 15.25,-5.3438 l 11.906,7.9375 16.27,-12.24 -3.94,-14.46 c 3.6346,-4.2674 6.8076,-8.9465 9.4062,-13.969 l 14.188,-0.75 5.7812,-19.5 -11.875,-9.3125 c 0.0831,-1.4354 0.125,-2.8876 0.125,-4.3438 0,-3.7719 -0.26694,-7.4759 -0.8125,-11.094 l 11.156,-9.2812 -7,-19.062 -15,-0.375 c -2.5,-3.9 -5.36,-7.55 -8.53,-10.91 l 3.9688,-13.844 -16.531,-11.812 -12.625,8.1875 c -4.1917,-1.7549 -8.583,-3.1311 -13.125,-4.0938 l -4.8125,-13.844 -20.312,-0.125 z M 291,321.81 c 3.9143,0 7.0938,3.1795 7.0938,7.0938 0,3.9143 -3.1795,7.0625 -7.0938,7.0625 -3.9143,0 -7.0938,-3.1482 -7.0938,-7.0625 0,-3.9143 3.1795,-7.0938 7.0938,-7.0938 z M 360.97,339 c 3.9143,0 7.0938,3.1795 7.0938,7.0938 0,3.9143 -3.1795,7.0625 -7.0938,7.0625 -3.9143,0 -7.0625,-3.1482 -7.0625,-7.0625 0,-3.9143 3.1482,-7.0938 7.0625,-7.0938 z m -46.688,10.062 c 19.05,0 34.5,15.419 34.5,34.469 0,19.05 -15.45,34.5 -34.5,34.5 -19.05,0 -34.5,-15.45 -34.5,-34.5 0,-19.05 15.45,-34.469 34.5,-34.469 z m -58.906,36.875 c 3.9143,0 7.0938,3.1795 7.0938,7.0938 0,3.9143 -3.1795,7.0625 -7.0938,7.0625 -3.9143,0 -7.0938,-3.1482 -7.0938,-7.0625 0,-3.9143 3.1795,-7.0938 7.0938,-7.0938 z m 108.53,22.625 c 3.9143,0 7.0938,3.1795 7.0938,7.0938 0,3.9143 -3.1795,7.0938 -7.0938,7.0938 -3.9143,0 -7.0625,-3.1795 -7.0625,-7.0938 0,-3.9143 3.1482,-7.0938 7.0625,-7.0938 z m -62.02,25.16 c 3.9143,0 7.0938,3.1795 7.0938,7.0938 0,3.9143 -3.1795,7.0625 -7.0938,7.0625 -3.9143,0 -7.0625,-3.1482 -7.0625,-7.0625 0,-3.9143 3.1482,-7.0938 7.0625,-7.0938 z"
         inkscape:connector-curvature="0"
         style="fill:url(#radialGradient4240);fill-rule:evenodd;stroke:#000000"
         id="path4236" />
      <path
         d="m 314.29,339.26 c -24.493,0 -44.344,19.851 -44.344,44.344 0,24.493 19.851,44.344 44.344,44.344 24.493,0 44.344,-19.851 44.344,-44.344 0,-24.493 -19.851,-44.344 -44.344,-44.344 z m 0,10.031 c 19.06,0 34.5,15.44 34.5,34.5 0,19.06 -15.44,34.5 -34.5,34.5 -19.06,0 -34.5,-15.44 -34.5,-34.5 0,-19.06 15.44,-34.5 34.5,-34.5 z"
         inkscape:connector-curvature="0"
         style="fill:#959595;fill-rule:evenodd;stroke:#000000"
         id="path4238" />
    </g>
    <g
       id="g4242"
       inkscape:label="Layer 1"
       transform="matrix(0.18239326,-0.07023085,0.07023085,0.18239326,39.395747,112.94197)">
      <path
         id="path4244"
         style="fill:url(#radialGradient4248);fill-rule:evenodd;stroke:#000000"
         inkscape:connector-curvature="0"
         d="m 304.56,297.53 -5.625,13.938 c -5.238,1.1051 -10.236,2.7875 -15,4.9375 l -12.16,-8.41 -16.469,11.906 3.75,14.781 c -3.2172,3.6149 -6.0654,7.5547 -8.5312,11.75 l -14.406,-0.0312 -6.8125,19.156 11.5,10.062 c -0.29423,2.6773 -0.4375,5.3997 -0.4375,8.1562 0,3.3628 0.25264,6.6626 0.6875,9.9062 l -11.531,9.2812 6.7188,19.188 15.25,0.59375 c 2.684,4.3134 5.7936,8.3408 9.2812,12 l -3.9062,13.938 16.594,11.719 12.688,-8.2812 c 4.541,1.8699 9.3073,3.3114 14.25,4.25 l 5.1562,13.719 20.344,-0.4375 5.1562,-13.906 c 5.3293,-1.2376 10.432,-3.0226 15.25,-5.3438 l 11.906,7.9375 16.27,-12.24 -3.94,-14.46 c 3.6346,-4.2674 6.8076,-8.9465 9.4062,-13.969 l 14.188,-0.75 5.7812,-19.5 -11.875,-9.3125 c 0.0831,-1.4354 0.125,-2.8876 0.125,-4.3438 0,-3.7719 -0.26694,-7.4759 -0.8125,-11.094 l 11.156,-9.2812 -7,-19.062 -15,-0.375 c -2.5,-3.9 -5.36,-7.55 -8.53,-10.91 l 3.9688,-13.844 -16.531,-11.812 -12.625,8.1875 c -4.1917,-1.7549 -8.583,-3.1311 -13.125,-4.0938 l -4.8125,-13.844 -20.312,-0.125 z M 291,321.81 c 3.9143,0 7.0938,3.1795 7.0938,7.0938 0,3.9143 -3.1795,7.0625 -7.0938,7.0625 -3.9143,0 -7.0938,-3.1482 -7.0938,-7.0625 0,-3.9143 3.1795,-7.0938 7.0938,-7.0938 z M 360.97,339 c 3.9143,0 7.0938,3.1795 7.0938,7.0938 0,3.9143 -3.1795,7.0625 -7.0938,7.0625 -3.9143,0 -7.0625,-3.1482 -7.0625,-7.0625 0,-3.9143 3.1482,-7.0938 7.0625,-7.0938 z m -46.688,10.062 c 19.05,0 34.5,15.419 34.5,34.469 0,19.05 -15.45,34.5 -34.5,34.5 -19.05,0 -34.5,-15.45 -34.5,-34.5 0,-19.05 15.45,-34.469 34.5,-34.469 z m -58.906,36.875 c 3.9143,0 7.0938,3.1795 7.0938,7.0938 0,3.9143 -3.1795,7.0625 -7.0938,7.0625 -3.9143,0 -7.0938,-3.1482 -7.0938,-7.0625 0,-3.9143 3.1795,-7.0938 7.0938,-7.0938 z m 108.53,22.625 c 3.9143,0 7.0938,3.1795 7.0938,7.0938 0,3.9143 -3.1795,7.0938 -7.0938,7.0938 -3.9143,0 -7.0625,-3.1795 -7.0625,-7.0938 0,-3.9143 3.1482,-7.0938 7.0625,-7.0938 z m -62.02,25.16 c 3.9143,0 7.0938,3.1795 7.0938,7.0938 0,3.9143 -3.1795,7.0625 -7.0938,7.0625 -3.9143,0 -7.0625,-3.1482 -7.0625,-7.0625 0,-3.9143 3.1482,-7.0938 7.0625,-7.0938 z" />
      <path
         id="path4246"
         style="fill:#959595;fill-rule:evenodd;stroke:#000000"
         inkscape:connector-curvature="0"
         d="m 314.29,339.26 c -24.493,0 -44.344,19.851 -44.344,44.344 0,24.493 19.851,44.344 44.344,44.344 24.493,0 44.344,-19.851 44.344,-44.344 0,-24.493 -19.851,-44.344 -44.344,-44.344 z m 0,10.031 c 19.06,0 34.5,15.44 34.5,34.5 0,19.06 -15.44,34.5 -34.5,34.5 -19.06,0 -34.5,-15.44 -34.5,-34.5 0,-19.06 15.44,-34.5 34.5,-34.5 z" />
    </g>
    <path
       sodipodi:nodetypes="ssscsssccsssscsssscssss"
       inkscape:connector-curvature="0"
       id="path4443"
       d="m 40.626953,12.464844 c -5.031592,0 -9.082031,4.356678 -9.082031,9.767578 l 0,23.947266 c 0,0.283355 0.01729,0.560794 0.03906,0.83789 l -5.353063,4.111183 c -3.765564,2.891975 -7.02862,13.166809 -7.02862,18.669858 l 0,39.274011 c 0,5.50304 6.000824,13.53089 6.000824,13.53089 l 3.40625,0 0,36.85937 c 0,5.50306 3.822366,9.93359 8.570313,9.93359 l 63.601564,0 c 4.74794,0 8.57031,-4.43053 8.57031,-9.93359 l 0,-36.85937 11.83789,0 c 4.74795,0 8.57032,-4.43056 8.57032,-9.9336 l 0,-48.524178 c 0,-5.503049 -3.84215,-10.829981 -8.05642,-13.016981 l -7.9221,-4.111183 c 0.0218,-0.277096 0.0391,-0.554535 0.0391,-0.83789 l 0,-23.947266 c 0,-5.4109 -4.05239,-9.767578 -9.08398,-9.767578 z"
       style="fill:url(#linearGradient4451);fill-opacity:1;stroke:none;stroke-width:0.2;stroke-miterlimit:4;stroke-dasharray:none;stroke-opacity:1;opacity:0.311" />
    <rect
       style="fill:#b3b3b3;fill-opacity:1;stroke:#000000;stroke-width:0.2;stroke-opacity:1;stroke-miterlimit:4;stroke-dasharray:none"
       id="rect4146"
       width="15.464375"
       height="54.970531"
       x="53.387074"
       y="63.506226"
       rx="4.014153"
       ry="4.6674933" />
    <rect
       style="fill:#333333;fill-opacity:1;stroke:#000000;stroke-opacity:1"
       id="rect4254"
       width="28.264383"
       height="46.250809"
       x="101.46024"
       y="68.123032"
       rx="0"
       ry="0" />
    <circle
       style="fill:#ff0000;fill-opacity:1;stroke:none;stroke-opacity:1"
       id="path4256"
       cx="107.68261"
       cy="73.887093"
       r="3.0833871" />
    <circle
       r="3.0833871"
       cy="73.887093"
       cx="115.68261"
       id="circle4258"
       style="fill:#d4ff2a;fill-opacity:1;stroke:none;stroke-opacity:1" />
    <rect
       style="fill:#2affd5;fill-opacity:1;stroke:none;stroke-opacity:1"
       id="rect4260"
       width="26.208792"
       height="6.6806722"
       x="104.02974"
       y="81.998268" />
    <rect
       y="89.998268"
       x="104.02974"
       height="6.6806722"
       width="26.208792"
       id="rect4262"
       style="fill:#bc5fd3;fill-opacity:1;stroke:none;stroke-opacity:1" />
    <rect
       style="fill:#66ff00;fill-opacity:1;stroke:none;stroke-opacity:1"
       id="rect4264"
       width="26.208792"
       height="6.6806722"
       x="104.02974"
       y="97.998268" />
    <g
       transform="matrix(0.07863643,0,0,0.07863643,55.363631,65.005491)"
       inkscape:label="Layer 1"
       id="layer1-3">
      <g
         transform="matrix(0.093976,0,0,0.097822,49.001,22.385)"
         id="g3007">
        <path
           sodipodi:sides="26"
           inkscape:flatsided="false"
           inkscape:rounded="1"
           sodipodi:cx="-320"
           sodipodi:cy="189.50504"
           inkscape:randomized="0"
           sodipodi:arg1="0.67189843"
           sodipodi:arg2="0.76264077"
           transform="translate(616.41,370.59)"
           inkscape:transform-center-y="0.0062913183"
           inkscape:transform-center-x="0.0026211851"
           sodipodi:r1="784.88788"
           d="M 294.28571,678.07647 C 231.71352,761.84189 264.22859,603.18519 189.7409,676.5576 91.648388,773.1814 265.9185,723.50263 159.51289,810.88766 78.712551,877.2445 148.25182,730.97945 58.369448,784.39372 -59.996262,854.73473 121.09879,848.2051 -3.1274794,907.58636 -97.460139,952.6782 5.061967,827.30519 -94.991461,857.65707 c -131.759919,39.97026 45.635476,76.96926 -89.191869,104.89571 -102.38271,21.20627 27.16402,-75.98849 -77.24572,-70.46293 -137.49673,7.27659 25.88945,85.65396 -111.7033,80.50262 -104.48264,-3.91172 44.55992,-67.27962 -58.13822,-86.90151 -135.24272,-25.83998 4.63881,89.36076 -127.72294,51.43101 -100.51043,-28.80239 59.36615,-54.66071 -35.65193,-98.2897 -125.12891,-57.45482 -16.88142,87.87424 -136.3198,19.37042 -90.69691,-52.01917 70.72225,-38.86512 -11.09368,-103.96564 -107.74305,-85.7306 -37.42056,81.28078 -136.99424,-13.81591 -75.61243,-72.21278 77.96822,-20.81084 14.10928,-103.59949 -84.09555,-109.02402 -55.78494,69.96359 -129.70706,-46.19931 -56.13366,-88.20965 80.68296,-1.54709 38.49227,-97.2125 -55.56073,-125.98137 -70.90733,54.58036 -114.88183,-75.89778 -33.3925,-99.08009 78.70874,17.80656 60.6383,-85.17588 -23.797,-135.61713 -81.9088,36.02512 -93.38,-101.18534 -8.7108,-104.19235 72.1601,36.12536 79.2601,-68.18914 9.3498,-137.37132 -88.1501,15.37623 -66.4514,-120.592378 16.4772,-103.249344 61.418,52.344686 93.27574,-47.2395043 41.95329,-131.1419877 -89.26834,-6.1662617 -35.66074,-132.9910277 40.7076,-96.30585 47.10639,65.521933 101.87044,-23.54447 72.11853,-117.29116 -85.19874,-27.3504 -2.79765,-137.66072 62.57219,-83.76542 30.05712,74.89128 104.54481,1.51887 98.09251,-96.62379 -76.1776,-46.94503 30.22801,-134.33006 80.80034,-66.35684 11.26107,79.90821 101.14344,26.49394 118.36571,-70.34101 -62.72934,-63.81138 61.49693,-123.19264 94.33266,-45.09184 -8.18945,80.28117 91.86398,49.92929 131.75992,-39.97026 -45.63548,-76.96926 89.19187,-104.89571 102.38271,-21.20627 -27.16402,75.98849 77.24572,70.46293 137.49673,-7.27659 -25.88945,-85.65396 111.7033,-80.50262 104.48264,3.91172 -44.55992,67.27962 58.13822,86.90151 135.24272,25.83998 -4.63881,-89.36076 127.722939,-51.43101 100.510433,28.80239 -59.366149,54.66071 35.651933,98.2897 125.128905,57.45482 16.881415,-87.87424 136.319794,-19.37042 90.696914,52.01917 -70.722246,38.86512 11.093684,103.96564 107.74305,85.7306 37.42056,-81.28078 136.99424,13.81592 75.61243,72.21277 -77.96822,20.81083 -14.10928,103.59948 84.09555,109.02402 55.78494,-69.96359 129.70706,46.19931 56.13362,88.20965 -80.68296,1.54709 -38.49227,97.2125 55.56074,125.981366 70.90732,-54.58036 114.88179,75.897781 33.39253,99.080089 -78.7087,-17.806562 -60.63823,85.175878 23.79693,135.617131 81.90882,-36.025123 93.38002,101.185341 8.71078,104.19236 -72.16019,-36.12536 -79.26012,68.18914 -9.34987,137.37132 88.15007,-15.37623 66.45132,120.59238 -16.47719,103.24934 -61.41797,-52.34469 -93.27569,47.2395 -41.95329,131.14199 89.26837,6.16626 35.66072,132.99103 -40.70758,96.30585 -47.10637,-65.52193 -101.87042,23.54447 -72.11853,117.29116 85.19871,27.3504 2.79765,137.66072 z"
           sodipodi:type="star"
           style="fill:#cccccc;stroke:#1a1a1a;stroke-width:4"
           sodipodi:r2="705.02197"
           id="path2991" />
        <path
           d="M 294.28571,678.07647 C 227.95919,766.86781 268.69785,598.78285 189.7409,676.5576 85.762837,778.97882 272.30284,718.25953 159.51289,810.88766 73.864531,881.22591 153.64477,727.7746 58.369448,784.39372 -67.098205,858.95519 128.55237,844.64223 -3.1274794,907.58636 -103.1201,955.38372 11.065173,825.48407 -94.991461,857.65707 c -139.665519,42.36848 53.725117,75.29367 -89.191869,104.89571 -108.52567,22.47865 33.4286,-76.32002 -77.24572,-70.46293 -145.74653,7.71318 34.14501,85.96304 -111.7033,80.50262 -110.7516,-4.14643 50.72181,-66.10231 -58.13822,-86.90151 -143.35728,-27.39038 12.58052,91.63654 -127.72294,51.43101 -106.54106,-30.53053 65.06724,-52.04297 -35.65193,-98.2897 -132.63664,-60.90211 -9.71511,91.98447 -136.3198,19.37042 -96.13873,-55.14032 75.63121,-34.95909 -11.09368,-103.96564 -114.20763,-90.87443 -31.44614,86.98658 -136.99424,-13.81591 -80.14917,-76.54555 81.79976,-15.84352 14.10928,-103.59949 -89.14129,-115.56546 -51.34961,76.93336 -129.70706,-46.19931 -59.50166,-93.50223 83.2144,4.19283 38.49227,-97.2125 -58.89443,-133.54025 -68.26883,62.40905 -114.88183,-75.89778 -35.396,-105.02489 79.79297,23.98551 60.6383,-85.17588 -25.2248,-143.75415 -81.2206,44.25775 -93.38,-101.18534 -9.2335,-110.4439 71.7341,42.38423 79.2601,-68.18914 9.9108,-145.613599 -89.452,23.53435 -66.4514,-120.592378 17.4659,-109.444305 59.5066,58.319738 93.27574,-47.2395043 44.47048,-139.0105077 -92.48484,1.4432238 -35.66074,-132.9910277 43.15006,-102.0842 43.82055,70.865917 101.87044,-23.54447 76.44564,-124.32863 -90.14274,-20.73178 -2.79765,-137.66072 66.32652,-88.79134 25.58786,79.29362 104.54481,1.51887 103.97806,-102.42122 -82.56194,-41.70192 30.22801,-134.33006 85.64836,-70.33825 5.86812,83.11306 101.14344,26.49394 125.46765,-74.56147 -70.18292,-60.24851 61.49693,-123.19264 99.99262,-47.79735 -14.19265,82.10229 91.86398,49.92929 139.66552,-42.36847 -53.72512,-75.29367 89.19187,-104.89571 108.52567,-22.47865 -33.4286,76.32002 77.24572,70.46293 145.74653,-7.71318 -34.14501,-85.96304 111.7033,-80.50262 110.7516,4.14643 -50.72181,66.10231 58.13822,86.90151 143.357283,27.39038 -12.58052,-91.63654 127.722939,-51.43101 106.541059,30.53053 -65.067239,52.04297 35.651933,98.2897 132.636639,60.90211 9.715112,-91.98447 136.319794,-19.37042 96.138734,55.14032 -75.631202,34.95909 11.093684,103.96564 114.20763,90.87443 31.44614,-86.98658 136.99424,13.81592 80.14917,76.54554 -81.79976,15.84351 -14.10928,103.59948 89.14129,115.56546 51.34961,-76.93336 129.70706,46.19931 59.50164,93.50223 -83.2144,-4.19283 -38.49227,97.2125 58.89438,133.540248 68.26885,-62.40905 114.88179,75.897781 35.39609,105.024895 -79.79293,-23.985508 -60.63823,85.175878 25.22475,143.754161 81.22055,-44.2577504 93.38002,101.185341 9.23343,110.4439 -71.73419,-42.38423 -79.26012,68.18914 -9.91086,145.6136 89.452,-23.53435 66.45132,120.59238 -17.46583,109.4443 -59.50651,-58.31974 -93.27569,47.2395 -44.47048,139.01051 92.48482,-1.44322 35.66072,132.99103 -43.15004,102.0842 -43.82053,-70.86592 -101.87042,23.54447 -76.44564,124.32863 90.14277,20.73178 2.79765,137.66072 z"
           inkscape:flatsided="false"
           inkscape:rounded="1.06"
           sodipodi:cx="-320"
           sodipodi:cy="189.50504"
           inkscape:randomized="0"
           transform="matrix(0.99916,0.041019,-0.041019,0.99916,623.92,383.87)"
           sodipodi:arg2="0.76264077"
           sodipodi:arg1="0.67189843"
           inkscape:transform-center-y="0.0061748904"
           sodipodi:r2="705.02197"
           sodipodi:r1="784.88788"
           inkscape:transform-center-x="0.0028759252"
           sodipodi:sides="26"
           sodipodi:type="star"
           style="fill:#4d4d4d"
           id="path2993" />
        <g
           transform="translate(-27.817,42.015)"
           id="g3001">
          <circle
             transform="translate(-108.57,-280)"
             style="fill:#b3b3b3"
             id="path2999"
             cx="442.85715"
             cy="798.07648"
             r="471.42856" />
          <circle
             transform="matrix(0.95176,0,0,0.93358,-130.06,-212.7)"
             style="fill:#ffffff"
             id="path2997"
             cx="442.85715"
             cy="798.07648"
             r="471.42856" />
        </g>
      </g>
    </g>
    <path
       style="fill:#aaffee;fill-opacity:1;fill-rule:evenodd;stroke:#000000;stroke-width:0.2;stroke-linecap:butt;stroke-linejoin:miter;stroke-miterlimit:4;stroke-dasharray:none;stroke-opacity:1"
       d="m 101.23788,20.856767 -12.443578,4.43451 6.60013,8.009066 18.690888,-1.541694 0,-8.332393 z"
       id="path4408"
       inkscape:connector-curvature="0"
       sodipodi:nodetypes="cccccc" />
    <rect
       style="fill:#112b00;fill-opacity:1;stroke:none;stroke-opacity:1"
       id="rect4412"
       width="5.1389785"
       height="5.1389785"
       x="105.34907"
       y="24.052574"
       rx="0"
       ry="0" />
    <rect
       style="opacity:0.38299997;fill:url(#linearGradient4441);fill-opacity:1;stroke:none;stroke-width:0.2;stroke-miterlimit:4;stroke-dasharray:none;stroke-opacity:1"
       id="rect4433"
       width="28.778278"
       height="46.764706"
       x="100.72397"
       y="67.733894" />
  </g>
</svg>
